<?xml version="1.0" encoding="utf-8"?>
<!-- Generator: Adobe Illustrator 17.0.0, SVG Export Plug-In . SVG Version: 6.00 Build 0)  -->
<!DOCTYPE svg PUBLIC "-//W3C//DTD SVG 1.1 Tiny//EN" "http://www.w3.org/Graphics/SVG/1.1/DTD/svg11-tiny.dtd">
<svg version="1.1" baseProfile="tiny" id="Layer_1" xmlns="http://www.w3.org/2000/svg" xmlns:xlink="http://www.w3.org/1999/xlink"
	 x="0px" y="0px"  viewBox="0 0 5472 1000" xml:space="preserve">
<g>
	<g transform="translate(0.000000,1000.000000) scale(0.100000,-0.100000)">
		<path fill="#A90000" d="M796.827,7661V6232l181-97c109-59,178-102,176-109c-7-17-267-356-274-356c-3,0-18,11-35,25
			c-16,14-34,25-39,25s-9-686-9-1747l1-1748l332-222c183-122,521-349,752-504c815-547,968-649,976-649c5,0,9,813,9,1807
			c0,1102-4,1803-9,1798c-5-6-31-68-57-138l-47-129l-29,6c-39,8-156,59-248,109c-122,65-280,158-285,167c-5,8,192,340,215,363
			c4,5,46-13,91-40c136-80,345-177,360-167c11,6,12,3064,1,3080c-7,12-118,87-822,559c-245,164-621,417-837,562
			c-215,145-394,263-397,263S796.827,8447,796.827,7661z M1659.827,5523c35-49,124-146,196-216l131-128l-156-169
			c-86-94-158-170-159-170c-2,0-67,71-146,158c-78,86-173,189-211,228l-69,71l168,156c92,86,171,156,174,157
			C1591.827,5610,1623.827,5571,1659.827,5523z"/>
		<path fill="#B6B412" d="M5761.827,9042c-38-26-304-205-590-397c-286-191-614-412-730-490c-115-78-312-210-437-294l-228-152V6119
			V4530h99h99l11-47c19-86,71-354,71-367c0-9-42-18-140-31l-140-18V2458c0-1441,2-1610,15-1604c14,5,596,394,1290,861
			c132,89,356,239,498,334s260,178,263,184c10,26-1,3082-11,3060c-13-27-175-195-186-191c-4,2-76,66-159,143c-84,77-160,145-168,151
			c-14,10-5,23,63,94c44,45,94,90,112,101s55,55,82,97c65,99,120,172,131,172c4,0,34-27,66-60s61-60,66-60c4,0,8,754,8,1675
			s-3,1675-7,1675C5834.827,9089,5800.827,9068,5761.827,9042z M5070.827,4816c80-88,146-165,146-172c0-14-86-95-165-155
			c-146-111-356-228-372-206c-13,17-193,406-193,416c0,5,7,12,16,15c23,9,335,212,369,240c17,14,35,25,41,23
			C4918.827,4976,4989.827,4903,5070.827,4816z"/>
		<path fill="#0C9BF5" d="M6756.827,7849V6608l23,7c12,4,54,11,93,15c40,5,81,13,93,20c17,8,22,8,26-2c9-28,105-423,105-434
			c0-7-24-17-57-23c-92-18-236-53-260-64l-23-10V4175V2234l54-40c30-21,127-88,215-149c89-60,263-181,388-267
			c312-214,327-225,503-347c85-59,272-187,415-286c143-98,297-205,343-237c45-32,87-58,92-58c7,0,10,1176,10,3429v3429l-282,194
			c-820,564-1685,1162-1699,1174c-8,8-21,14-27,14C6759.827,9090,6756.827,8791,6756.827,7849z M7781.827,6820
			c76-82,140-150,143-150c4,0,75,69,159,152c151,151,153,152,172,133c77-80,291-318,291-323c0-4-61-68-135-142s-135-139-135-145
			c0-5,62-72,137-147l137-138l-30-32c-17-18-88-95-159-171l-129-138l-152,152c-83,83-156,150-161,148c-8-3-102-104-259-277l-21-23
			l-158,171l-158,172l141,141l142,142l-141,142l-141,142l38,44c88,101,269,296,276,297C7641.827,6970,7706.827,6903,7781.827,6820z"
			/>
	</g>
	<g>
		<path fill="#0C4D76" d="M1325.105,808.6c15.462,0,29.662-0.731,42.6-2.2c12.932-1.462,25.131-3.662,36.6-6.6
			c11.462-2.932,22.263-6.463,32.4-10.6c10.131-4.132,20.263-8.863,30.4-14.2V648.6h-88.8c-5.069,0-9.137-1.462-12.2-4.399
			c-3.069-2.932-4.6-6.531-4.6-10.801v-44h176v220c-14.4,10.4-29.4,19.469-45,27.2c-15.6,7.737-32.269,14.2-50,19.4
			c-17.738,5.2-36.738,9.063-57,11.6c-20.269,2.531-42.269,3.8-66,3.8c-41.6,0-79.738-7.131-114.4-21.399
			c-34.669-14.263-64.538-34.263-89.6-60c-25.069-25.731-44.6-56.601-58.6-92.601s-21-75.6-21-118.8c0-43.731,6.862-83.6,20.6-119.6
			c13.731-36,33.331-66.862,58.8-92.6c25.462-25.731,56.263-45.663,92.4-59.8c36.131-14.131,76.6-21.2,121.4-21.2
			c22.662,0,43.731,1.669,63.2,5c19.462,3.337,37.531,8.138,54.2,14.4c16.663,6.269,32.063,13.869,46.2,22.8
			c14.131,8.938,27.332,19,39.6,30.2l-22,35.2c-4.538,7.2-10.4,10.8-17.6,10.8c-4.269,0-8.938-1.462-14-4.4
			c-6.668-3.731-14.137-8.262-22.4-13.6c-8.269-5.331-18.337-10.462-30.2-15.4c-11.869-4.931-25.869-9.131-42-12.6
			c-16.138-3.462-35.269-5.2-57.4-5.2c-32.269,0-61.469,5.269-87.6,15.8c-26.138,10.538-48.4,25.6-66.8,45.2
			s-32.538,43.337-42.4,71.2c-9.869,27.869-14.8,59.138-14.8,93.8c0,36.269,5.131,68.601,15.4,97
			c10.262,28.4,24.731,52.469,43.4,72.2c18.663,19.737,40.8,34.8,66.4,45.2C1265.905,803.399,1294.167,808.6,1325.105,808.6z"/>
		<path fill="#0C4D76" d="M2128.3,865h-60c-6.938,0-12.538-1.731-16.8-5.2c-4.269-3.463-7.469-7.862-9.6-13.2L1988.3,708.2h-257.2
			L1677.5,846.6c-1.869,4.8-5.069,9.069-9.6,12.8c-4.537,3.738-10.137,5.601-16.8,5.601h-60l229.2-573.2h78.8L2128.3,865z
			 M1752.7,652.2h214l-90-233.2c-5.869-14.4-11.6-32.4-17.2-54c-2.938,10.938-5.8,21-8.6,30.2c-2.8,9.2-5.537,17.269-8.2,24.2
			L1752.7,652.2z"/>
		<path fill="#0C4D76" d="M2492.494,678c2.8,7.068,5.531,14.2,8.2,21.399c2.663-7.462,5.462-14.6,8.4-21.399
			c2.931-6.8,6.263-13.663,10-20.601l194-352.399c3.462-6.131,7.063-9.862,10.8-11.2c3.731-1.331,9.063-2,16-2h57.2V865h-68V443.8
			c0-5.6,0.131-11.6,0.4-18c0.263-6.4,0.663-12.931,1.2-19.6l-196.4,358.399c-6.669,12-16,18-28,18h-11.2c-12,0-21.337-6-28-18
			l-200.8-359.6c0.8,6.938,1.4,13.737,1.8,20.4c0.4,6.669,0.6,12.8,0.6,18.4V865h-68V291.8h57.2c6.932,0,12.263,0.669,16,2
			c3.731,1.338,7.332,5.069,10.8,11.2l198,352.8C2486.425,664.2,2489.694,670.938,2492.494,678z"/>
		<path fill="#0C4D76" d="M3289.892,291.8V355h-275.2v190.399h222.8V606.2h-222.8v195.6h275.2V865h-353.2V291.8H3289.892z"/>
		<path fill="#0C4D76" d="M3515.087,670.2V865h-135.2V282.2h205.6c41.063,0,76.331,4.869,105.8,14.6
			c29.462,9.738,53.731,23.138,72.8,40.2c19.063,17.069,33.131,37.2,42.2,60.4c9.063,23.2,13.6,48.269,13.6,75.2
			c0,29.069-4.669,55.737-14,80c-9.337,24.269-23.6,45.069-42.8,62.4c-19.2,17.337-43.538,30.868-73,40.6
			c-29.469,9.737-64.338,14.601-104.6,14.601H3515.087z M3515.087,568.2h70.4c35.2,0,60.531-8.4,76-25.2
			c15.462-16.8,23.2-40.263,23.2-70.4c0-13.332-2-25.462-6-36.4c-4-10.932-10.068-20.332-18.2-28.2
			c-8.138-7.862-18.4-13.931-30.8-18.2c-12.4-4.262-27.137-6.4-44.2-6.4h-70.4V568.2z"/>
		<path fill="#0C4D76" d="M4025.476,757h216v108h-351.2V282.2h135.2V757z"/>
		<path fill="#0C4D76" d="M4847.873,865h-104.801c-11.737,0-21.399-2.731-29-8.2c-7.6-5.463-12.868-12.463-15.8-21l-34.399-101.6
			h-221.601l-34.399,101.6c-2.669,7.469-7.869,14.2-15.601,20.2c-7.737,6-17.2,9-28.399,9h-105.601l225.601-582.8h138.399
			L4847.873,865z M4473.473,642.2h159.2l-53.601-159.6c-3.469-10.131-7.537-22.063-12.199-35.8c-4.669-13.731-9.27-28.6-13.801-44.6
			c-4.269,16.269-8.668,31.337-13.199,45.2c-4.538,13.869-8.801,25.869-12.801,36L4473.473,642.2z"/>
		<path fill="#0C4D76" d="M4981.072,283c4,0.538,7.6,1.538,10.8,3c3.2,1.469,6.263,3.538,9.2,6.2c2.932,2.668,6.263,6.269,10,10.8
			l276.8,350c-1.068-11.2-1.868-22.063-2.399-32.601c-0.538-10.531-0.801-20.462-0.801-29.8V282.2h119.2V865h-70.399
			c-10.4,0-19.2-1.601-26.4-4.8c-7.2-3.2-14.138-9.063-20.8-17.601l-274.8-347.2c0.8,10.137,1.462,20.069,2,29.8
			c0.531,9.737,0.8,18.868,0.8,27.399V865h-119.2V282.2h71.2C4972.135,282.2,4977.072,282.469,4981.072,283z"/>
	</g>
</g>
</svg>
